<?xml version="1.0" standalone="no"?>
<!DOCTYPE svg PUBLIC "-//W3C//DTD SVG 20010904//EN"
 "http://www.w3.org/TR/2001/REC-SVG-20010904/DTD/svg10.dtd">
<svg version="1.0" xmlns="http://www.w3.org/2000/svg"
 width="368.000000pt" height="272.000000pt" viewBox="0 0 368.000000 272.000000"
 preserveAspectRatio="xMidYMid meet">

<g transform="translate(0.000000,272.000000) scale(0.100000,-0.100000)"
fill="#000000" stroke="none">
<path d="M0 1360 l0 -1360 1840 0 1840 0 0 1360 0 1360 -1840 0 -1840 0 0
-1360z m1565 796 c33 -9 98 -36 145 -59 l85 -43 45 26 c197 114 449 132 662
46 103 -42 171 -89 268 -186 83 -82 102 -108 142 -190 56 -114 77 -193 85
-320 17 -267 -114 -528 -340 -682 -178 -121 -405 -167 -609 -124 -64 14 -193
69 -232 98 -18 14 -26 12 -90 -23 -126 -67 -200 -84 -366 -84 -136 0 -150 2
-232 31 -214 76 -368 213 -458 407 -56 121 -74 202 -74 337 0 382 246 690 619
776 77 17 269 12 350 -10z"/>
<path d="M1290 2020 c-149 -20 -256 -74 -361 -179 -58 -59 -84 -95 -116 -161
-53 -109 -67 -172 -67 -290 1 -181 58 -317 188 -445 93 -92 167 -136 282 -165
133 -34 270 -22 398 34 l57 25 -51 62 c-58 73 -122 197 -147 289 -24 90 -24
309 0 400 26 93 99 236 153 298 25 29 45 54 43 56 -2 2 -22 13 -45 24 -86 43
-233 66 -334 52z"/>
<path d="M2170 2024 c-81 -13 -142 -29 -192 -51 l-57 -25 43 -57 c228 -294
228 -692 -1 -994 -24 -33 -43 -61 -41 -62 11 -11 112 -48 163 -61 266 -62 570
84 694 337 58 116 80 243 64 357 -23 158 -77 266 -188 377 -78 78 -155 123
-260 153 -71 21 -179 33 -225 26z"/>
<path d="M1752 1804 c-57 -64 -119 -191 -138 -284 -19 -88 -14 -225 12 -310
22 -76 77 -176 126 -230 l40 -45 44 48 c51 56 107 166 129 252 21 81 21 243 0
324 -22 87 -74 187 -127 246 l-44 48 -42 -49z"/>
</g>
</svg>
