<?xml version="1.0" standalone="no"?>
<!DOCTYPE svg PUBLIC "-//W3C//DTD SVG 20010904//EN"
 "http://www.w3.org/TR/2001/REC-SVG-20010904/DTD/svg10.dtd">
<svg version="1.0" xmlns="http://www.w3.org/2000/svg"
 width="375.000000pt" height="288.000000pt" viewBox="0 0 375.000000 288.000000"
 preserveAspectRatio="xMidYMid meet">

<g transform="translate(0.000000,288.000000) scale(0.100000,-0.100000)"
fill="#000000" stroke="none">
<path d="M0 1440 l0 -1440 1875 0 1875 0 0 1440 0 1440 -1875 0 -1875 0 0
-1440z m1429 1186 c32 -17 78 -110 137 -281 34 -97 38 -121 39 -205 0 -66 -6
-114 -19 -157 -17 -57 -18 -71 -6 -200 16 -178 24 -889 13 -1149 -9 -193 -10
-202 -36 -247 -66 -113 -217 -139 -314 -54 -69 61 -73 81 -85 430 -11 335 -6
641 16 965 12 178 12 208 -1 250 -9 27 -16 87 -16 142 -1 108 9 149 84 339 67
170 109 207 188 167z m905 -118 c27 -24 124 -254 152 -358 18 -70 18 -141 -1
-214 -14 -53 -14 -82 1 -295 13 -169 18 -368 18 -701 1 -529 2 -525 -79 -599
-121 -112 -298 -56 -357 113 -32 93 -23 797 16 1260 12 140 12 153 -6 210 -35
109 -24 182 56 381 38 96 79 182 94 198 32 33 72 35 106 5z"/>
<path d="M1351 2359 c-61 -159 -73 -241 -50 -335 l11 -44 64 0 c61 0 65 2 75
28 6 15 14 59 16 99 6 74 -6 129 -60 272 l-24 64 -32 -84z"/>
<path d="M1316 1778 c-6 -60 -26 -390 -26 -423 0 -12 16 -15 90 -15 l91 0 -5
48 c-3 26 -8 103 -11 172 -3 69 -8 160 -11 203 l-7 77 -57 0 -58 0 -6 -62z"/>
<path d="M1291 1033 c0 -93 4 -257 8 -366 8 -182 10 -200 29 -220 27 -26 77
-27 103 -1 18 19 20 38 24 305 3 156 7 321 10 367 l4 82 -89 0 -90 0 1 -167z"/>
<path d="M2266 2266 c-65 -155 -77 -221 -55 -298 9 -36 12 -38 54 -39 25 -1
50 -2 57 -3 17 -1 36 62 37 122 1 51 -32 171 -63 231 l-14 25 -16 -38z"/>
<path d="M2226 1758 c-8 -45 -26 -315 -26 -377 l0 -51 81 0 81 0 -6 128 c-3
70 -9 173 -12 230 l-6 102 -54 0 c-52 0 -53 -1 -58 -32z"/>
<path d="M2190 858 c0 -307 2 -347 18 -378 36 -73 110 -78 144 -10 16 31 18
72 18 383 l0 347 -90 0 -90 0 0 -342z"/>
</g>
</svg>
