<?xml version="1.0" standalone="no"?>
<!DOCTYPE svg PUBLIC "-//W3C//DTD SVG 20010904//EN"
 "http://www.w3.org/TR/2001/REC-SVG-20010904/DTD/svg10.dtd">
<svg version="1.0" xmlns="http://www.w3.org/2000/svg"
 width="388.000000pt" height="290.000000pt" viewBox="0 0 388.000000 290.000000"
 preserveAspectRatio="xMidYMid meet">

<g transform="translate(0.000000,290.000000) scale(0.100000,-0.100000)"
fill="#000000" stroke="none">
<path d="M0 1450 l0 -1450 1940 0 1940 0 0 1450 0 1450 -1940 0 -1940 0 0
-1450z m2125 1065 c231 -58 431 -193 575 -386 372 -500 204 -1229 -350 -1518
-175 -92 -279 -116 -490 -116 -137 0 -166 3 -252 27 -183 51 -325 134 -458
267 -126 126 -207 258 -255 416 -39 129 -48 205 -42 359 6 161 30 264 97 403
145 307 432 518 778 573 97 15 285 4 397 -25z"/>
<path d="M1722 2379 c-130 -22 -282 -89 -393 -175 -135 -103 -251 -286 -300
-469 -31 -117 -31 -318 0 -434 81 -303 297 -528 594 -620 393 -121 830 67
1021 438 78 152 91 210 91 406 -1 166 -1 172 -34 267 -126 368 -456 602 -841
597 -47 -1 -109 -5 -138 -10z m258 -154 c33 -34 35 -68 5 -103 -26 -31 -30
-32 -101 -32 -330 0 -583 -244 -584 -563 0 -59 -3 -71 -25 -92 -29 -30 -73
-33 -105 -7 -31 25 -36 94 -16 211 48 276 228 488 481 567 153 47 308 56 345
19z m-24 -276 c137 -25 249 -110 311 -237 37 -75 38 -78 38 -191 0 -109 -2
-120 -31 -181 -77 -162 -230 -260 -405 -260 -253 0 -449 223 -425 485 16 183
175 353 358 384 75 12 87 12 154 0z m637 -346 c13 -12 17 -32 17 -85 0 -102
-25 -201 -80 -313 -127 -259 -378 -415 -668 -415 -71 0 -81 2 -102 25 -29 30
-31 79 -4 105 15 15 39 20 119 24 179 9 302 63 415 182 105 111 154 221 166
378 4 45 12 87 18 95 26 33 84 35 119 4z"/>
<path d="M1786 1784 c-65 -20 -146 -101 -169 -168 -49 -143 15 -300 145 -356
144 -63 304 2 372 149 31 69 28 170 -6 237 -66 126 -202 181 -342 138z"/>
</g>
</svg>
