<?xml version="1.0" standalone="no"?>
<!DOCTYPE svg PUBLIC "-//W3C//DTD SVG 20010904//EN"
 "http://www.w3.org/TR/2001/REC-SVG-20010904/DTD/svg10.dtd">
<svg version="1.0" xmlns="http://www.w3.org/2000/svg"
 width="355.000000pt" height="314.000000pt" viewBox="0 0 355.000000 314.000000"
 preserveAspectRatio="xMidYMid meet">

<g transform="translate(0.000000,314.000000) scale(0.100000,-0.100000)"
fill="#000000" stroke="none">
<path d="M0 1570 l0 -1570 1775 0 1775 0 0 1570 0 1570 -1775 0 -1775 0 0
-1570z m1709 1095 c92 -22 197 -81 261 -146 31 -32 84 -105 122 -170 158 -270
195 -325 263 -394 75 -76 179 -137 254 -150 26 -4 48 -16 61 -32 25 -32 25
-44 -1 -77 -26 -33 -80 -35 -163 -6 -192 66 -294 175 -504 536 -103 176 -141
221 -229 265 -65 33 -72 34 -183 34 -104 0 -121 -3 -172 -27 -150 -70 -230
-234 -200 -411 20 -116 77 -199 170 -246 20 -10 81 -30 134 -45 136 -36 199
-79 233 -158 11 -28 15 -74 15 -176 l0 -140 30 -12 c40 -17 95 -79 110 -125
18 -56 8 -127 -28 -184 l-30 -49 25 -24 c67 -62 98 -174 74 -265 -17 -63 -69
-124 -133 -157 -135 -69 -303 -14 -364 119 -45 94 -25 203 54 295 l30 35 -31
44 c-36 52 -46 127 -27 186 15 46 70 108 110 125 l30 12 0 130 c0 128 0 130
-27 157 -21 20 -52 33 -118 49 -123 30 -189 65 -261 136 -109 109 -150 226
-142 402 4 95 8 109 46 189 108 224 347 337 591 280z"/>
<path d="M1659 1185 c-53 -29 -62 -118 -16 -150 33 -23 84 -19 112 10 67 66
-14 185 -96 140z"/>
<path d="M1614 827 c-31 -28 -37 -41 -42 -85 -4 -48 -2 -54 30 -86 19 -19 47
-38 61 -42 69 -17 150 33 159 98 13 84 -40 148 -123 148 -42 0 -55 -5 -85 -33z"/>
</g>
</svg>
