<?xml version="1.0" standalone="no"?>
<!DOCTYPE svg PUBLIC "-//W3C//DTD SVG 20010904//EN"
 "http://www.w3.org/TR/2001/REC-SVG-20010904/DTD/svg10.dtd">
<svg version="1.0" xmlns="http://www.w3.org/2000/svg"
 width="395.000000pt" height="288.000000pt" viewBox="0 0 395.000000 288.000000"
 preserveAspectRatio="xMidYMid meet">

<g transform="translate(0.000000,288.000000) scale(0.100000,-0.100000)"
fill="#000000" stroke="none">
<path d="M0 1440 l0 -1440 1975 0 1975 0 0 1440 0 1440 -1975 0 -1975 0 0
-1440z m1690 829 c107 -29 184 -74 270 -156 88 -83 132 -152 168 -260 14 -43
26 -79 26 -80 1 -1 32 13 69 32 179 90 385 83 563 -20 27 -15 81 -60 119 -99
78 -79 123 -160 150 -266 13 -53 22 -68 46 -82 23 -14 29 -24 29 -51 0 -19 -8
-45 -18 -58 -16 -19 -31 -23 -104 -27 l-85 -4 -6 -52 c-17 -167 -145 -325
-300 -371 -113 -34 -255 -12 -351 54 -112 77 -178 187 -201 334 l-6 37 -55 0
c-59 0 -108 19 -118 45 -12 33 -5 67 19 89 14 13 25 34 25 47 0 35 35 144 59
184 l20 35 -29 0 c-28 0 -30 -3 -30 -36 0 -104 -61 -245 -140 -324 -143 -143
-357 -170 -532 -67 -58 34 -140 122 -172 185 -31 62 -56 152 -56 204 l0 38
-60 0 c-72 0 -105 14 -121 51 -9 24 -9 33 6 55 9 14 29 30 44 35 23 8 29 18
40 72 22 110 74 202 165 292 91 91 168 136 278 165 97 25 195 25 288 -1z"/>
<path d="M1460 2139 c-168 -32 -341 -201 -365 -355 l-7 -39 191 3 191 3 0 94
c0 107 14 135 69 135 53 0 71 -37 71 -144 l0 -91 200 3 200 3 -6 27 c-3 15
-21 59 -39 97 -45 93 -126 174 -219 220 -104 51 -185 64 -286 44z"/>
<path d="M2385 1717 c-156 -41 -288 -178 -311 -324 l-7 -43 182 0 181 0 0 83
c0 93 15 120 65 120 50 0 65 -27 65 -120 l0 -83 184 0 184 0 -12 48 c-27 99
-93 192 -181 252 -94 64 -247 93 -350 67z"/>
<path d="M1193 1540 c12 -107 75 -204 169 -256 47 -26 63 -29 138 -29 75 0 91
3 138 29 95 53 154 145 166 259 l6 57 -311 0 -312 0 6 -60z m369 -47 c25 -29
29 -53 13 -82 -24 -48 -72 -55 -110 -16 -30 29 -32 64 -5 93 26 27 80 30 102
5z"/>
<path d="M2205 1158 c15 -94 73 -177 156 -223 48 -27 63 -30 139 -30 75 0 91
3 131 27 79 46 130 121 147 216 l9 52 -294 0 -295 0 7 -42z m343 -34 c29 -20
31 -83 2 -109 -49 -45 -128 -4 -116 60 11 57 68 82 114 49z"/>
</g>
</svg>
