<?xml version="1.0" standalone="no"?>
<!DOCTYPE svg PUBLIC "-//W3C//DTD SVG 20010904//EN"
 "http://www.w3.org/TR/2001/REC-SVG-20010904/DTD/svg10.dtd">
<svg version="1.0" xmlns="http://www.w3.org/2000/svg"
 width="360.000000pt" height="349.000000pt" viewBox="0 0 360.000000 349.000000"
 preserveAspectRatio="xMidYMid meet">

<g transform="translate(0.000000,349.000000) scale(0.100000,-0.100000)"
fill="#000000" stroke="none">
<path d="M0 1745 l0 -1745 1800 0 1800 0 0 1745 0 1745 -1800 0 -1800 0 0
-1745z m1978 1100 c12 -15 43 -120 82 -275 l62 -250 80 0 c146 0 168 -30 168
-227 l0 -130 39 -18 c55 -24 126 -99 159 -165 l27 -55 0 -540 0 -540 -33 -67
c-36 -75 -88 -123 -168 -160 -49 -23 -51 -23 -534 -23 l-485 0 -56 26 c-76 36
-133 89 -166 157 l-28 57 0 550 0 550 35 64 c35 66 108 134 163 153 l27 10 0
124 c0 198 20 226 168 234 l95 5 64 250 c76 302 71 295 198 295 77 0 85 -2
103 -25z"/>
<path d="M1856 2722 c-3 -5 -27 -97 -54 -205 l-50 -197 114 0 c86 0 112 3 109
13 -2 6 -22 91 -45 187 -23 96 -43 183 -46 193 -6 18 -19 23 -28 9z"/>
<path d="M1497 2173 c-4 -3 -7 -48 -7 -100 l0 -93 370 0 370 0 0 100 0 100
-363 0 c-200 0 -367 -3 -370 -7z"/>
<path d="M1407 1830 c-44 -13 -95 -57 -120 -103 -22 -42 -22 -43 -22 -537 l0
-495 24 -48 c15 -30 39 -58 64 -75 l41 -27 460 -3 c329 -2 468 1 488 9 40 16
95 81 107 126 16 55 15 949 -1 1010 -14 59 -78 127 -133 142 -48 13 -865 14
-908 1z m520 -243 c36 -37 172 -247 215 -335 39 -77 42 -89 42 -165 -1 -180
-100 -306 -264 -335 -152 -28 -306 61 -361 207 -17 45 -20 72 -17 138 4 69 10
93 41 156 70 142 209 340 251 357 29 13 67 3 93 -23z"/>
<path d="M1796 1352 c-91 -137 -120 -204 -121 -272 0 -70 26 -123 78 -161 135
-98 312 13 294 185 -6 62 -41 134 -126 260 l-60 89 -65 -101z"/>
</g>
</svg>
