<?xml version="1.0" standalone="no"?>
<!DOCTYPE svg PUBLIC "-//W3C//DTD SVG 20010904//EN"
 "http://www.w3.org/TR/2001/REC-SVG-20010904/DTD/svg10.dtd">
<svg version="1.0" xmlns="http://www.w3.org/2000/svg"
 width="395.000000pt" height="277.000000pt" viewBox="0 0 395.000000 277.000000"
 preserveAspectRatio="xMidYMid meet">

<g transform="translate(0.000000,277.000000) scale(0.100000,-0.100000)"
fill="#000000" stroke="none">
<path d="M0 1385 l0 -1385 1975 0 1975 0 0 1385 0 1385 -1975 0 -1975 0 0
-1385z m2984 769 c64 -22 147 -100 177 -166 l24 -53 0 -580 0 -580 -24 -45
c-32 -61 -86 -116 -146 -148 l-50 -27 -925 0 -925 0 -51 27 c-28 15 -70 48
-92 73 -73 83 -72 70 -72 699 0 351 4 575 10 598 24 84 121 183 204 207 17 5
422 10 927 10 798 1 901 -1 943 -15z"/>
<path d="M1109 1996 c-72 -49 -70 -30 -67 -650 3 -542 3 -555 24 -582 11 -15
33 -37 48 -48 27 -21 36 -21 913 -24 881 -2 886 -2 929 19 50 24 79 65 89 128
4 24 4 280 0 569 l-8 526 -38 40 -38 41 -908 3 -908 2 -36 -24z m453 -134
c179 -81 214 -327 65 -458 -54 -47 -102 -64 -183 -64 -143 1 -262 118 -265
262 -2 81 19 135 76 196 84 90 197 114 307 64z m574 13 c153 -45 236 -235 165
-378 -29 -59 -82 -113 -136 -138 -46 -21 -138 -25 -197 -7 -53 16 -123 80
-155 142 -65 127 -13 294 112 358 79 41 131 47 211 23z m641 -16 c61 -29 120
-101 139 -167 51 -175 -74 -352 -249 -352 -84 0 -132 17 -187 67 -62 55 -92
126 -92 211 0 198 210 328 389 241z m85 -758 c23 -29 18 -67 -14 -93 -19 -17
-72 -18 -809 -18 -776 0 -789 0 -809 20 -29 29 -26 74 7 99 26 21 28 21 815
19 l790 -3 20 -24z"/>
<path d="M1382 1731 c-97 -62 -93 -192 8 -244 113 -58 244 70 186 181 -39 75
-128 104 -194 63z"/>
<path d="M1983 1730 c-60 -36 -82 -129 -46 -191 18 -30 84 -69 118 -69 35 0
100 39 119 71 23 40 24 110 1 145 -40 61 -130 82 -192 44z"/>
<path d="M2583 1730 c-60 -36 -82 -129 -46 -191 19 -32 85 -69 122 -69 35 0
89 29 111 60 86 121 -60 278 -187 200z"/>
</g>
</svg>
