<?xml version="1.0" standalone="no"?>
<!DOCTYPE svg PUBLIC "-//W3C//DTD SVG 20010904//EN"
 "http://www.w3.org/TR/2001/REC-SVG-20010904/DTD/svg10.dtd">
<svg version="1.0" xmlns="http://www.w3.org/2000/svg"
 width="308.000000pt" height="312.000000pt" viewBox="0 0 308.000000 312.000000"
 preserveAspectRatio="xMidYMid meet">

<g transform="translate(0.000000,312.000000) scale(0.100000,-0.100000)"
fill="#000000" stroke="none">
<path d="M0 1560 l0 -1560 1540 0 1540 0 0 1560 0 1560 -1540 0 -1540 0 0
-1560z m1593 1202 c12 -13 157 -500 157 -527 0 -3 16 -5 35 -5 48 0 92 -24
115 -63 17 -27 20 -51 20 -147 l0 -115 58 -17 c72 -21 142 -81 180 -152 l27
-51 3 -434 c3 -489 3 -493 -70 -575 -97 -111 -144 -119 -669 -114 -368 3 -386
5 -431 25 -63 29 -124 87 -156 147 l-27 51 -3 432 c-2 271 1 447 7 471 26 94
111 178 209 205 l42 11 0 114 c0 128 11 161 63 192 18 11 48 20 67 20 l35 0
75 257 c42 146 83 265 93 275 25 26 147 26 170 0z"/>
<path d="M1462 2407 c-23 -84 -42 -158 -42 -164 0 -10 25 -13 91 -13 89 0 90
0 83 23 -4 12 -24 84 -45 160 -20 76 -39 140 -41 142 -2 2 -23 -64 -46 -148z"/>
<path d="M1240 1990 l0 -90 265 0 265 0 0 90 0 90 -265 0 -265 0 0 -90z"/>
<path d="M1075 1746 c-35 -15 -82 -67 -90 -99 -3 -12 -4 -204 -3 -427 3 -401
3 -405 25 -436 46 -64 47 -64 511 -64 418 0 419 0 452 22 70 48 70 46 70 497
l0 404 -25 42 c-43 74 -47 75 -508 75 -312 -1 -409 -4 -432 -14z"/>
</g>
</svg>
